<mxfile host="Electron" modified="2024-11-13T10:01:02.470Z" agent="Mozilla/5.0 (Windows NT 10.0; Win64; x64) AppleWebKit/537.36 (KHTML, like Gecko) draw.io/22.0.3 Chrome/114.0.5735.289 Electron/25.8.4 Safari/537.36" etag="pSHuep1rc2nc7x35_FP9" version="22.0.3" type="device">
  <diagram name="Page-1" id="Q2cAXRWMkj_WiWsZ5MAI">
    <mxGraphModel dx="2459" dy="669" grid="1" gridSize="10" guides="1" tooltips="1" connect="1" arrows="1" fold="1" page="1" pageScale="1" pageWidth="1169" pageHeight="827" math="0" shadow="0">
      <root>
        <mxCell id="0" />
        <mxCell id="1" parent="0" />
        <mxCell id="VKMzzKHFIX8PLIYPVqw0-1" value="Speler" style="rounded=0;whiteSpace=wrap;html=1;" parent="1" vertex="1">
          <mxGeometry x="210" y="310" width="120" height="60" as="geometry" />
        </mxCell>
        <mxCell id="VKMzzKHFIX8PLIYPVqw0-3" value="Naam" style="ellipse;whiteSpace=wrap;html=1;" parent="1" vertex="1">
          <mxGeometry x="360" y="300" width="120" height="80" as="geometry" />
        </mxCell>
        <mxCell id="VKMzzKHFIX8PLIYPVqw0-4" value="Email" style="ellipse;whiteSpace=wrap;html=1;" parent="1" vertex="1">
          <mxGeometry x="210" y="413.5" width="120" height="80" as="geometry" />
        </mxCell>
        <mxCell id="VKMzzKHFIX8PLIYPVqw0-8" value="" style="endArrow=none;html=1;rounded=0;entryX=0.5;entryY=0;entryDx=0;entryDy=0;" parent="1" source="VKMzzKHFIX8PLIYPVqw0-1" target="VKMzzKHFIX8PLIYPVqw0-4" edge="1">
          <mxGeometry width="50" height="50" relative="1" as="geometry">
            <mxPoint x="250" y="370" as="sourcePoint" />
            <mxPoint x="300" y="320" as="targetPoint" />
          </mxGeometry>
        </mxCell>
        <mxCell id="VKMzzKHFIX8PLIYPVqw0-9" value="" style="endArrow=none;html=1;rounded=0;" parent="1" source="VKMzzKHFIX8PLIYPVqw0-1" target="VKMzzKHFIX8PLIYPVqw0-3" edge="1">
          <mxGeometry width="50" height="50" relative="1" as="geometry">
            <mxPoint x="250" y="370" as="sourcePoint" />
            <mxPoint x="300" y="320" as="targetPoint" />
          </mxGeometry>
        </mxCell>
        <mxCell id="VKMzzKHFIX8PLIYPVqw0-19" value="Gesprek" style="rounded=0;whiteSpace=wrap;html=1;" parent="1" vertex="1">
          <mxGeometry x="-100" y="570" width="120" height="60" as="geometry" />
        </mxCell>
        <mxCell id="VKMzzKHFIX8PLIYPVqw0-21" value="Start tijd" style="ellipse;whiteSpace=wrap;html=1;" parent="1" vertex="1">
          <mxGeometry x="-100" y="670" width="120" height="80" as="geometry" />
        </mxCell>
        <mxCell id="VKMzzKHFIX8PLIYPVqw0-23" value="Eind tijd" style="ellipse;whiteSpace=wrap;html=1;" parent="1" vertex="1">
          <mxGeometry x="-250" y="560" width="120" height="80" as="geometry" />
        </mxCell>
        <mxCell id="VKMzzKHFIX8PLIYPVqw0-24" value="Opname van gesprek" style="ellipse;whiteSpace=wrap;html=1;" parent="1" vertex="1">
          <mxGeometry x="-250" y="440" width="120" height="80" as="geometry" />
        </mxCell>
        <mxCell id="VKMzzKHFIX8PLIYPVqw0-27" value="Heeft" style="rhombus;whiteSpace=wrap;html=1;" parent="1" vertex="1">
          <mxGeometry x="50" y="430" width="140" height="80" as="geometry" />
        </mxCell>
        <mxCell id="VKMzzKHFIX8PLIYPVqw0-31" value="" style="endArrow=none;html=1;rounded=0;" parent="1" source="VKMzzKHFIX8PLIYPVqw0-19" target="VKMzzKHFIX8PLIYPVqw0-24" edge="1">
          <mxGeometry width="50" height="50" relative="1" as="geometry">
            <mxPoint x="40" y="490" as="sourcePoint" />
            <mxPoint x="90" y="440" as="targetPoint" />
          </mxGeometry>
        </mxCell>
        <mxCell id="VKMzzKHFIX8PLIYPVqw0-33" value="" style="endArrow=none;html=1;rounded=0;" parent="1" source="VKMzzKHFIX8PLIYPVqw0-23" target="VKMzzKHFIX8PLIYPVqw0-19" edge="1">
          <mxGeometry width="50" height="50" relative="1" as="geometry">
            <mxPoint x="40" y="490" as="sourcePoint" />
            <mxPoint x="90" y="440" as="targetPoint" />
          </mxGeometry>
        </mxCell>
        <mxCell id="VKMzzKHFIX8PLIYPVqw0-35" value="" style="endArrow=none;html=1;rounded=0;" parent="1" source="VKMzzKHFIX8PLIYPVqw0-21" target="VKMzzKHFIX8PLIYPVqw0-19" edge="1">
          <mxGeometry width="50" height="50" relative="1" as="geometry">
            <mxPoint x="-30" y="600" as="sourcePoint" />
            <mxPoint x="20" y="550" as="targetPoint" />
          </mxGeometry>
        </mxCell>
        <mxCell id="VKMzzKHFIX8PLIYPVqw0-36" value="" style="endArrow=none;html=1;rounded=0;" parent="1" source="VKMzzKHFIX8PLIYPVqw0-19" target="VKMzzKHFIX8PLIYPVqw0-27" edge="1">
          <mxGeometry width="50" height="50" relative="1" as="geometry">
            <mxPoint x="150" y="520" as="sourcePoint" />
            <mxPoint x="200" y="470" as="targetPoint" />
          </mxGeometry>
        </mxCell>
        <mxCell id="VKMzzKHFIX8PLIYPVqw0-41" value="n" style="edgeLabel;html=1;align=center;verticalAlign=middle;resizable=0;points=[];" parent="VKMzzKHFIX8PLIYPVqw0-36" vertex="1" connectable="0">
          <mxGeometry x="-0.2325" relative="1" as="geometry">
            <mxPoint y="-1" as="offset" />
          </mxGeometry>
        </mxCell>
        <mxCell id="VKMzzKHFIX8PLIYPVqw0-37" value="" style="endArrow=none;html=1;rounded=0;" parent="1" source="VKMzzKHFIX8PLIYPVqw0-27" target="VKMzzKHFIX8PLIYPVqw0-1" edge="1">
          <mxGeometry width="50" height="50" relative="1" as="geometry">
            <mxPoint x="150" y="460" as="sourcePoint" />
            <mxPoint x="200" y="410" as="targetPoint" />
          </mxGeometry>
        </mxCell>
        <mxCell id="VKMzzKHFIX8PLIYPVqw0-40" value="1" style="edgeLabel;html=1;align=center;verticalAlign=middle;resizable=0;points=[];" parent="VKMzzKHFIX8PLIYPVqw0-37" vertex="1" connectable="0">
          <mxGeometry x="0.0542" y="-6" relative="1" as="geometry">
            <mxPoint x="-8" y="3" as="offset" />
          </mxGeometry>
        </mxCell>
        <mxCell id="qn4p95OMWJSzjcLmvRtU-1" value="Onderwerp" style="rounded=0;whiteSpace=wrap;html=1;" vertex="1" parent="1">
          <mxGeometry x="300" y="600" width="120" height="60" as="geometry" />
        </mxCell>
        <mxCell id="qn4p95OMWJSzjcLmvRtU-2" value="Naam" style="ellipse;whiteSpace=wrap;html=1;" vertex="1" parent="1">
          <mxGeometry x="300" y="493.5" width="120" height="80" as="geometry" />
        </mxCell>
        <mxCell id="qn4p95OMWJSzjcLmvRtU-3" value="Heeft" style="rhombus;whiteSpace=wrap;html=1;" vertex="1" parent="1">
          <mxGeometry x="70" y="590" width="140" height="80" as="geometry" />
        </mxCell>
        <mxCell id="qn4p95OMWJSzjcLmvRtU-4" value="" style="endArrow=none;html=1;rounded=0;entryX=0;entryY=0.5;entryDx=0;entryDy=0;" edge="1" parent="1" source="VKMzzKHFIX8PLIYPVqw0-19" target="qn4p95OMWJSzjcLmvRtU-3">
          <mxGeometry width="50" height="50" relative="1" as="geometry">
            <mxPoint x="300" y="590" as="sourcePoint" />
            <mxPoint x="350" y="540" as="targetPoint" />
          </mxGeometry>
        </mxCell>
        <mxCell id="qn4p95OMWJSzjcLmvRtU-6" value="n" style="edgeLabel;html=1;align=center;verticalAlign=middle;resizable=0;points=[];" vertex="1" connectable="0" parent="qn4p95OMWJSzjcLmvRtU-4">
          <mxGeometry x="0.0645" y="1" relative="1" as="geometry">
            <mxPoint y="-1" as="offset" />
          </mxGeometry>
        </mxCell>
        <mxCell id="qn4p95OMWJSzjcLmvRtU-5" value="" style="endArrow=none;html=1;rounded=0;exitX=1;exitY=0.5;exitDx=0;exitDy=0;" edge="1" parent="1" source="qn4p95OMWJSzjcLmvRtU-3" target="qn4p95OMWJSzjcLmvRtU-1">
          <mxGeometry width="50" height="50" relative="1" as="geometry">
            <mxPoint x="250" y="620" as="sourcePoint" />
            <mxPoint x="350" y="540" as="targetPoint" />
          </mxGeometry>
        </mxCell>
        <mxCell id="qn4p95OMWJSzjcLmvRtU-7" value="1" style="edgeLabel;html=1;align=center;verticalAlign=middle;resizable=0;points=[];" vertex="1" connectable="0" parent="qn4p95OMWJSzjcLmvRtU-5">
          <mxGeometry x="-0.0222" y="-1" relative="1" as="geometry">
            <mxPoint as="offset" />
          </mxGeometry>
        </mxCell>
        <mxCell id="qn4p95OMWJSzjcLmvRtU-8" value="" style="endArrow=none;html=1;rounded=0;" edge="1" parent="1" source="qn4p95OMWJSzjcLmvRtU-1" target="qn4p95OMWJSzjcLmvRtU-2">
          <mxGeometry width="50" height="50" relative="1" as="geometry">
            <mxPoint x="300" y="590" as="sourcePoint" />
            <mxPoint x="350" y="540" as="targetPoint" />
          </mxGeometry>
        </mxCell>
        <mxCell id="qn4p95OMWJSzjcLmvRtU-9" value="Categorie" style="rounded=0;whiteSpace=wrap;html=1;" vertex="1" parent="1">
          <mxGeometry x="580" y="370" width="120" height="60" as="geometry" />
        </mxCell>
        <mxCell id="qn4p95OMWJSzjcLmvRtU-10" value="Heeft" style="rhombus;whiteSpace=wrap;html=1;" vertex="1" parent="1">
          <mxGeometry x="440" y="470" width="140" height="80" as="geometry" />
        </mxCell>
        <mxCell id="qn4p95OMWJSzjcLmvRtU-11" value="" style="endArrow=none;html=1;rounded=0;" edge="1" parent="1" source="qn4p95OMWJSzjcLmvRtU-1" target="qn4p95OMWJSzjcLmvRtU-10">
          <mxGeometry width="50" height="50" relative="1" as="geometry">
            <mxPoint x="590" y="570" as="sourcePoint" />
            <mxPoint x="640" y="520" as="targetPoint" />
          </mxGeometry>
        </mxCell>
        <mxCell id="qn4p95OMWJSzjcLmvRtU-13" value="n" style="edgeLabel;html=1;align=center;verticalAlign=middle;resizable=0;points=[];" vertex="1" connectable="0" parent="qn4p95OMWJSzjcLmvRtU-11">
          <mxGeometry x="-0.004" y="1" relative="1" as="geometry">
            <mxPoint as="offset" />
          </mxGeometry>
        </mxCell>
        <mxCell id="qn4p95OMWJSzjcLmvRtU-12" value="" style="endArrow=none;html=1;rounded=0;" edge="1" parent="1" source="qn4p95OMWJSzjcLmvRtU-10" target="qn4p95OMWJSzjcLmvRtU-9">
          <mxGeometry width="50" height="50" relative="1" as="geometry">
            <mxPoint x="590" y="570" as="sourcePoint" />
            <mxPoint x="640" y="520" as="targetPoint" />
          </mxGeometry>
        </mxCell>
        <mxCell id="qn4p95OMWJSzjcLmvRtU-14" value="1" style="edgeLabel;html=1;align=center;verticalAlign=middle;resizable=0;points=[];" vertex="1" connectable="0" parent="qn4p95OMWJSzjcLmvRtU-12">
          <mxGeometry x="0.0683" y="-1" relative="1" as="geometry">
            <mxPoint as="offset" />
          </mxGeometry>
        </mxCell>
        <mxCell id="qn4p95OMWJSzjcLmvRtU-15" value="Naam" style="ellipse;whiteSpace=wrap;html=1;" vertex="1" parent="1">
          <mxGeometry x="580" y="250" width="120" height="80" as="geometry" />
        </mxCell>
        <mxCell id="qn4p95OMWJSzjcLmvRtU-16" value="" style="endArrow=none;html=1;rounded=0;" edge="1" parent="1" source="qn4p95OMWJSzjcLmvRtU-9" target="qn4p95OMWJSzjcLmvRtU-15">
          <mxGeometry width="50" height="50" relative="1" as="geometry">
            <mxPoint x="590" y="450" as="sourcePoint" />
            <mxPoint x="640" y="400" as="targetPoint" />
          </mxGeometry>
        </mxCell>
      </root>
    </mxGraphModel>
  </diagram>
</mxfile>
